<?xml version="1.0" encoding="utf-8"?>
<!-- Generator: Adobe Illustrator 16.0.4, SVG Export Plug-In . SVG Version: 6.00 Build 0)  -->
<!DOCTYPE svg PUBLIC "-//W3C//DTD SVG 1.1//EN" "http://www.w3.org/Graphics/SVG/1.1/DTD/svg11.dtd">
<svg version="1.1" xmlns="http://www.w3.org/2000/svg" xmlns:xlink="http://www.w3.org/1999/xlink" x="0px" y="0px"
	 width="1190.549px" height="841.891px" viewBox="0 0 1190.549 841.891" enable-background="new 0 0 1190.549 841.891"
	 xml:space="preserve">
<g id="Camada_1">
</g>
<g id="Camada_2">
	<g>
		<path fill="#231F20" d="M669.599,142.672v237.731h-53.613V142.672H669.599z"/>
		<path fill="#231F20" d="M917.213,289.404c-1.059-28.573-2.115-63.138-2.115-97.707h-0.707
			c-7.755,30.335-17.638,64.195-26.806,92.062l-28.924,92.765h-41.974l-25.394-91.707c-7.761-28.216-15.522-62.078-21.517-93.119
			h-0.708c-1.059,32.099-2.47,68.783-3.881,98.41l-4.583,90.296h-49.732l15.167-237.731h71.599l23.282,79.36
			c7.761,27.511,14.812,57.142,20.105,85.004h1.411c6.349-27.512,14.46-58.904,22.573-85.355l25.043-79.009h70.549l12.691,237.731
			h-52.202L917.213,289.404z"/>
		<path fill="#231F20" d="M1156.028,279.878h-87.48v56.435h97.706v44.09h-151.316V142.672h146.372v44.087h-92.762v49.382h87.48
			V279.878z"/>
	</g>
	<g>
		<path fill="#231F20" d="M636.7,515.02v61.232h-11.176V515.02H636.7z"/>
		<path fill="#231F20" d="M649.515,576.252V515.02h12.72l15.805,26.26c4.088,6.81,7.633,13.895,10.449,20.527h0.183
			c-0.73-8.173-1.002-16.071-1.002-25.434V515.02h10.357v61.232h-11.538l-15.989-26.887c-3.905-6.722-7.992-14.269-10.99-21.166
			l-0.272,0.088c0.454,7.91,0.545,15.996,0.545,26.072v21.893H649.515z"/>
		<path fill="#231F20" d="M710.666,564.085c3.633,2.09,9.083,3.905,14.807,3.905c7.179,0,11.174-3.367,11.174-8.361
			c0-4.631-3.089-7.359-10.901-10.176c-10.082-3.631-16.532-8.987-16.532-17.8c0-10.001,8.355-17.623,21.62-17.623
			c6.63,0,11.538,1.452,14.717,3.079l-2.727,8.999c-2.181-1.177-6.448-2.903-12.173-2.903c-7.084,0-10.171,3.817-10.171,7.36
			c0,4.719,3.541,6.896,11.718,10.075c10.626,4.006,15.806,9.362,15.806,18.175c0,9.813-7.45,18.35-23.256,18.35
			c-6.448,0-13.175-1.815-16.534-3.817L710.666,564.085z"/>
		<path fill="#231F20" d="M769.818,524.381h-17.443v-9.361h46.239v9.361h-17.622v51.871h-11.174V524.381z"/>
		<path fill="#231F20" d="M816.978,515.02v61.232h-11.176V515.02H816.978z"/>
		<path fill="#231F20" d="M841.51,524.381h-17.442v-9.361h46.24v9.361h-17.624v51.871H841.51V524.381z"/>
		<path fill="#231F20" d="M888.579,515.02v35.71c0,11.991,4.998,17.536,12.536,17.536c8.085,0,12.904-5.545,12.904-17.536v-35.71
			h11.17v34.983c0,18.888-9.717,27.25-24.438,27.25c-14.172,0-23.347-7.898-23.347-27.162V515.02H888.579z"/>
		<path fill="#231F20" d="M949.73,524.381h-17.447v-9.361h46.243v9.361h-17.624v51.871H949.73V524.381z"/>
		<path fill="#231F20" d="M1037.492,545.009c0,20.527-12.442,32.244-29.341,32.244c-17.26,0-28.161-13.168-28.161-31.154
			c0-18.813,11.81-32.068,29.069-32.068C1026.952,514.03,1037.492,527.561,1037.492,545.009z M991.8,545.91
			c0,12.442,6.265,22.355,16.991,22.355c10.809,0,16.898-10.001,16.898-22.806c0-11.54-5.728-22.443-16.898-22.443
			C997.7,523.017,991.8,533.28,991.8,545.91z"/>
		<path fill="#231F20" d="M1065.943,515.845c4.906-0.825,11.178-1.276,17.812-1.276c11.44,0,19.351,2.365,24.982,7.084
			c5.902,4.819,9.537,12.092,9.537,22.531c0,10.901-3.729,19.074-9.537,24.345c-6.09,5.545-15.81,8.361-27.712,8.361
			c-6.54,0-11.447-0.363-15.083-0.813V515.845z M1077.12,567.715c1.545,0.275,3.905,0.275,6.177,0.275
			c14.539,0.087,23.162-7.911,23.162-23.444c0.094-13.53-7.717-21.253-21.704-21.253c-3.549,0-6.09,0.274-7.635,0.638V567.715z"/>
		<path fill="#231F20" d="M1162.259,549.09h-23.079v17.986h25.803v9.176h-36.975V515.02h35.61v9.187h-24.438v15.796h23.079V549.09z"
			/>
		<path fill="#231F20" d="M632.785,660.313c-0.363-7.91-0.816-17.447-0.725-25.709h-0.272c-2.001,7.447-4.544,15.708-7.271,23.431
			l-8.905,26.537h-8.631l-8.177-26.173c-2.358-7.811-4.54-16.16-6.177-23.795h-0.181c-0.272,7.999-0.635,17.711-1.088,26.072
			l-1.364,24.622h-10.446l4.086-61.233h14.717l7.995,24.62c2.182,7.173,4.087,14.445,5.633,21.254h0.272
			c1.637-6.634,3.725-14.169,6.087-21.341l8.45-24.533h14.536l3.542,61.233h-10.902L632.785,660.313z"/>
		<path fill="#231F20" d="M667.958,667.949l-5.267,17.35h-11.538l19.621-61.233h14.263l19.896,61.233h-11.99l-5.542-17.35H667.958z
			 M685.49,659.5l-4.812-15.082c-1.182-3.73-2.181-7.911-3.089-11.453h-0.181c-0.912,3.542-1.818,7.811-2.907,11.453l-4.725,15.082
			H685.49z"/>
		<path fill="#231F20" d="M717.844,633.428h-17.441v-9.362h46.24v9.362h-17.625v51.871h-11.174V633.428z"/>
		<path fill="#231F20" d="M788.078,658.136h-23.074v17.987h25.801v9.176H753.83v-61.233h35.61v9.175h-24.437v15.809h23.074V658.136z
			"/>
		<path fill="#231F20" d="M852.318,660.313c-0.362-7.91-0.816-17.447-0.725-25.709h-0.273c-1.999,7.447-4.544,15.708-7.269,23.431
			l-8.903,26.537h-8.629l-8.177-26.173c-2.361-7.811-4.542-16.16-6.178-23.795h-0.181c-0.274,7.999-0.636,17.711-1.091,26.072
			l-1.364,24.622h-10.443l4.085-61.233h14.718l7.995,24.62c2.18,7.173,4.087,14.445,5.633,21.254h0.271
			c1.639-6.634,3.726-14.169,6.088-21.341l8.449-24.533h14.535l3.541,61.233h-10.901L852.318,660.313z"/>
		<path fill="#231F20" d="M887.49,667.949l-5.266,17.35h-11.538l19.619-61.233h14.263l19.897,61.233h-11.992l-5.538-17.35H887.49z
			 M905.02,659.5l-4.809-15.082c-1.183-3.73-2.181-7.911-3.089-11.453h-0.183c-0.91,3.542-1.818,7.811-2.906,11.453l-4.726,15.082
			H905.02z M912.205,609.896l-11.359,10.902h-8.993l7.994-10.902H912.205z"/>
		<path fill="#231F20" d="M937.375,633.428h-17.441v-9.362h46.238v9.362h-17.619v51.871h-11.178V633.428z"/>
		<path fill="#231F20" d="M984.533,624.065v61.233h-11.172v-61.233H984.533z"/>
		<path fill="#231F20" d="M1041.221,683.481c-2.627,1.354-8.447,2.718-15.802,2.718c-19.444,0-31.249-12.167-31.249-30.791
			c0-20.165,13.989-32.344,32.702-32.344c7.36,0,12.628,1.552,14.9,2.729l-2.452,8.899c-2.905-1.265-6.91-2.366-11.992-2.366
			c-12.448,0-21.441,7.823-21.441,22.53c0,13.456,7.904,22.08,21.348,22.08c4.543,0,9.269-0.914,12.172-2.266L1041.221,683.481z"/>
		<path fill="#231F20" d="M1063.678,667.949l-5.27,17.35h-11.534l19.618-61.233h14.264l19.896,61.233h-11.992l-5.544-17.35H1063.678
			z M1081.214,659.5l-4.819-15.082c-1.177-3.73-2.18-7.911-3.086-11.453h-0.182c-0.914,3.542-1.814,7.811-2.903,11.453
			l-4.731,15.082H1081.214z"/>
		<path fill="#231F20" d="M1162.259,658.136h-23.074v17.987h25.804v9.176h-36.976v-61.233h35.61v9.175h-24.438v15.809h23.074
			V658.136z"/>
		<path fill="#231F20" d="M721.201,767.17h-23.073v17.988h25.799v9.173h-36.975V733.1h35.61v9.187h-24.435v15.797h23.073V767.17z"/>
		<path fill="#231F20" d="M733.478,782.166c3.633,2.089,9.083,3.904,14.807,3.904c7.179,0,11.174-3.367,11.174-8.361
			c0-4.632-3.087-7.36-10.901-10.176c-10.082-3.631-16.532-8.987-16.532-17.798c0-10.001,8.355-17.624,21.62-17.624
			c6.632,0,11.537,1.452,14.717,3.077l-2.725,9.001c-2.182-1.177-6.45-2.903-12.173-2.903c-7.084,0-10.174,3.817-10.174,7.358
			c0,4.72,3.542,6.897,11.719,10.076c10.628,4.007,15.806,9.363,15.806,18.176c0,9.812-7.451,18.349-23.257,18.349
			c-6.448,0-13.172-1.814-16.533-3.817L733.478,782.166z"/>
		<path fill="#231F20" d="M792.625,742.463h-17.441V733.1h46.239v9.363h-17.624v51.868h-11.174V742.463z"/>
		<path fill="#231F20" d="M834.241,776.982l-5.267,17.349h-11.537l19.619-61.231h14.263l19.896,61.231h-11.992l-5.542-17.349
			H834.241z M851.774,768.534l-4.812-15.081c-1.184-3.718-2.18-7.899-3.089-11.44h-0.182c-0.91,3.541-1.818,7.809-2.907,11.44
			l-4.726,15.081H851.774z"/>
		<path fill="#231F20" d="M884.126,742.463h-17.442V733.1h46.24v9.363h-17.622v51.868h-11.176V742.463z"/>
		<path fill="#231F20" d="M940.193,718.931l-11.359,10.902h-8.993l7.998-10.902H940.193z M931.287,733.1v61.231h-11.172V733.1
			H931.287z"/>
		<path fill="#231F20" d="M943.829,782.166c3.636,2.089,9.08,3.904,14.808,3.904c7.178,0,11.178-3.367,11.178-8.361
			c0-4.632-3.093-7.36-10.904-10.176c-10.081-3.631-16.533-8.987-16.533-17.798c0-10.001,8.355-17.624,21.615-17.624
			c6.635,0,11.542,1.452,14.722,3.077l-2.729,9.001c-2.179-1.177-6.446-2.903-12.166-2.903c-7.085,0-10.178,3.817-10.178,7.358
			c0,4.72,3.543,6.897,11.717,10.076c10.627,4.007,15.809,9.363,15.809,18.176c0,9.812-7.448,18.349-23.256,18.349
			c-6.452,0-13.174-1.814-16.535-3.817L943.829,782.166z"/>
		<path fill="#231F20" d="M1002.984,742.463h-17.45V733.1h46.244v9.363h-17.624v51.868h-11.17V742.463z"/>
		<path fill="#231F20" d="M1050.134,733.1v61.231h-11.171V733.1H1050.134z"/>
		<path fill="#231F20" d="M1106.828,792.517c-2.635,1.364-8.448,2.729-15.801,2.729c-19.445,0-31.255-12.178-31.255-30.804
			c0-20.164,13.992-32.33,32.705-32.33c7.36,0,12.63,1.538,14.896,2.715l-2.453,8.913c-2.903-1.276-6.902-2.367-11.992-2.367
			c-12.44,0-21.441,7.812-21.441,22.53c0,13.444,7.912,22.081,21.355,22.081c4.543,0,9.262-0.914,12.172-2.278L1106.828,792.517z"/>
		<path fill="#231F20" d="M1129.278,776.982l-5.27,17.349h-11.534l19.621-61.231h14.263l19.896,61.231h-11.992l-5.544-17.349
			H1129.278z M1146.814,768.534l-4.819-15.081c-1.177-3.718-2.177-7.899-3.085-11.44h-0.183c-0.912,3.541-1.814,7.809-2.902,11.44
			l-4.731,15.081H1146.814z"/>
	</g>
</g>
</svg>
